<svg id="Capa_1" data-name="Capa 1" xmlns="http://www.w3.org/2000/svg" viewBox="0 0 500 500"><defs><style>.cls-1{fill:#595959;}.cls-2{fill:#fbae17;}</style></defs><path class="cls-1" d="M319.46,50.19H180.54a32.09,32.09,0,0,0-22.7,9.4L59.59,157.84a32.09,32.09,0,0,0-9.4,22.7V319.46a32.09,32.09,0,0,0,9.4,22.7l98.25,98.25a32.09,32.09,0,0,0,22.7,9.4H319.46a32.09,32.09,0,0,0,22.7-9.4l98.25-98.25a32.09,32.09,0,0,0,9.4-22.7V180.54a32.09,32.09,0,0,0-9.4-22.7L342.16,59.59A32.09,32.09,0,0,0,319.46,50.19ZM414,331.24,331.24,414a32.09,32.09,0,0,1-22.7,9.4H191.46a32.09,32.09,0,0,1-22.7-9.4L86,331.24a32.09,32.09,0,0,1-9.4-22.7V191.46a32.09,32.09,0,0,1,9.4-22.7L168.76,86a32.09,32.09,0,0,1,22.7-9.4H308.54a32.09,32.09,0,0,1,22.7,9.4l82.8,82.8a32.09,32.09,0,0,1,9.4,22.7V308.54A32.09,32.09,0,0,1,414,331.24Z"/><path class="cls-2" d="M175.24,312.65c6.65-14.62,13.32-29,19.68-43.46a195.6,195.6,0,0,0,7.9-20.76,24.56,24.56,0,0,0,.79-11.1c-.89-5.1-5.08-8.21-9.72-9.63-9.28-2.84-18.67-5.47-28.17-7.41-13.86-2.82-48-9-48-9s49.4-18.55,71.1-26.56c19.61-7.24,39.24-14.43,58.83-21.73,2.35-.88,3.63-.61,5.05,1.65,7.81,12.48,15.69,24.93,23.81,37.22a60.89,60.89,0,0,0,8.41,9.82c4.92,4.79,10.75,6.22,17.41,3.74,9.8-3.64,18.12-9.73,26.54-15.65,11.8-8.28,41-28.69,41-28.69s-17.05,68.78-24.9,99.76c-.76,3-1.34,6.05-2.26,9-.29.91-1.4,2.13-2.23,2.21-8.15.83-16.36,1.14-24.48,2.21-11.17,1.46-22.42,2.82-33.37,5.39-13,3.05-18,10.88-15.91,24.13,2.59,16.15,6,32.18,9,48.26.79,4.22,1.48,8.46,2.34,13.4Z"/></svg>